<mxfile host="app.diagrams.net" agent="Mozilla/5.0 (Windows NT 10.0; Win64; x64) AppleWebKit/537.36 (KHTML, like Gecko) Chrome/131.0.0.0 Safari/537.36" version="26.0.4">
  <diagram name="Сторінка-1" id="8J17CWEP0rwUTO2kTjv4">
    <mxGraphModel dx="1284" dy="746" grid="1" gridSize="10" guides="1" tooltips="1" connect="1" arrows="1" fold="1" page="1" pageScale="1" pageWidth="827" pageHeight="1169" math="0" shadow="1">
      <root>
        <mxCell id="0" />
        <mxCell id="1" parent="0" />
        <mxCell id="PkAfYLx5WFREf2XD6PGY-1" value="sqlite3" style="shape=cylinder3;whiteSpace=wrap;html=1;boundedLbl=1;backgroundOutline=1;size=15;fillColor=#fad9d5;strokeColor=#ae4132;" vertex="1" parent="1">
          <mxGeometry x="690" y="1080" width="60" height="80" as="geometry" />
        </mxCell>
        <mxCell id="PkAfYLx5WFREf2XD6PGY-7" style="edgeStyle=orthogonalEdgeStyle;rounded=0;orthogonalLoop=1;jettySize=auto;html=1;exitX=0.9;exitY=0.5;exitDx=0;exitDy=0;exitPerimeter=0;entryX=0;entryY=0.5;entryDx=0;entryDy=0;" edge="1" parent="1" source="PkAfYLx5WFREf2XD6PGY-2" target="PkAfYLx5WFREf2XD6PGY-3">
          <mxGeometry relative="1" as="geometry" />
        </mxCell>
        <mxCell id="PkAfYLx5WFREf2XD6PGY-2" value="&lt;font style=&quot;color: light-dark(rgb(0, 0, 0), rgb(51, 255, 51));&quot;&gt;user&lt;/font&gt;" style="shape=actor;whiteSpace=wrap;html=1;labelPosition=center;verticalLabelPosition=top;align=center;verticalAlign=bottom;" vertex="1" parent="1">
          <mxGeometry x="40" y="850" width="40" height="50" as="geometry" />
        </mxCell>
        <mxCell id="PkAfYLx5WFREf2XD6PGY-9" style="edgeStyle=orthogonalEdgeStyle;rounded=0;orthogonalLoop=1;jettySize=auto;html=1;exitX=0.5;exitY=1;exitDx=0;exitDy=0;entryX=0.5;entryY=0;entryDx=0;entryDy=0;" edge="1" parent="1" source="PkAfYLx5WFREf2XD6PGY-3" target="PkAfYLx5WFREf2XD6PGY-4">
          <mxGeometry relative="1" as="geometry" />
        </mxCell>
        <mxCell id="PkAfYLx5WFREf2XD6PGY-10" style="edgeStyle=orthogonalEdgeStyle;rounded=0;orthogonalLoop=1;jettySize=auto;html=1;exitX=1;exitY=0.5;exitDx=0;exitDy=0;entryX=0;entryY=0.5;entryDx=0;entryDy=0;" edge="1" parent="1" source="PkAfYLx5WFREf2XD6PGY-3" target="PkAfYLx5WFREf2XD6PGY-5">
          <mxGeometry relative="1" as="geometry" />
        </mxCell>
        <mxCell id="PkAfYLx5WFREf2XD6PGY-3" value="MAIN PAGE" style="rounded=0;whiteSpace=wrap;html=1;" vertex="1" parent="1">
          <mxGeometry x="160" y="855" width="120" height="60" as="geometry" />
        </mxCell>
        <mxCell id="PkAfYLx5WFREf2XD6PGY-26" style="edgeStyle=orthogonalEdgeStyle;rounded=0;orthogonalLoop=1;jettySize=auto;html=1;exitX=0.5;exitY=1;exitDx=0;exitDy=0;entryX=0;entryY=0.5;entryDx=0;entryDy=0;" edge="1" parent="1" source="PkAfYLx5WFREf2XD6PGY-4" target="PkAfYLx5WFREf2XD6PGY-24">
          <mxGeometry relative="1" as="geometry" />
        </mxCell>
        <mxCell id="PkAfYLx5WFREf2XD6PGY-49" style="edgeStyle=orthogonalEdgeStyle;rounded=0;orthogonalLoop=1;jettySize=auto;html=1;exitX=0.5;exitY=0;exitDx=0;exitDy=0;entryX=0.25;entryY=1;entryDx=0;entryDy=0;" edge="1" parent="1" source="PkAfYLx5WFREf2XD6PGY-4" target="PkAfYLx5WFREf2XD6PGY-3">
          <mxGeometry relative="1" as="geometry" />
        </mxCell>
        <mxCell id="PkAfYLx5WFREf2XD6PGY-4" value="LOGIN / REG" style="rounded=0;whiteSpace=wrap;html=1;" vertex="1" parent="1">
          <mxGeometry x="160" y="940" width="120" height="60" as="geometry" />
        </mxCell>
        <mxCell id="PkAfYLx5WFREf2XD6PGY-11" style="edgeStyle=orthogonalEdgeStyle;rounded=0;orthogonalLoop=1;jettySize=auto;html=1;exitX=0.5;exitY=1;exitDx=0;exitDy=0;entryX=1;entryY=0.5;entryDx=0;entryDy=0;" edge="1" parent="1" source="PkAfYLx5WFREf2XD6PGY-5" target="PkAfYLx5WFREf2XD6PGY-4">
          <mxGeometry relative="1" as="geometry" />
        </mxCell>
        <mxCell id="PkAfYLx5WFREf2XD6PGY-13" style="edgeStyle=orthogonalEdgeStyle;rounded=0;orthogonalLoop=1;jettySize=auto;html=1;exitX=1;exitY=0.5;exitDx=0;exitDy=0;entryX=0;entryY=0.5;entryDx=0;entryDy=0;" edge="1" parent="1" source="PkAfYLx5WFREf2XD6PGY-5" target="PkAfYLx5WFREf2XD6PGY-12">
          <mxGeometry relative="1" as="geometry" />
        </mxCell>
        <mxCell id="PkAfYLx5WFREf2XD6PGY-28" style="edgeStyle=orthogonalEdgeStyle;rounded=0;orthogonalLoop=1;jettySize=auto;html=1;exitX=0.5;exitY=1;exitDx=0;exitDy=0;entryX=0.5;entryY=0;entryDx=0;entryDy=0;" edge="1" parent="1" source="PkAfYLx5WFREf2XD6PGY-5" target="PkAfYLx5WFREf2XD6PGY-24">
          <mxGeometry relative="1" as="geometry" />
        </mxCell>
        <mxCell id="PkAfYLx5WFREf2XD6PGY-33" style="edgeStyle=orthogonalEdgeStyle;rounded=0;orthogonalLoop=1;jettySize=auto;html=1;exitX=0.5;exitY=0;exitDx=0;exitDy=0;entryX=0.5;entryY=1;entryDx=0;entryDy=0;" edge="1" parent="1" source="PkAfYLx5WFREf2XD6PGY-5" target="PkAfYLx5WFREf2XD6PGY-32">
          <mxGeometry relative="1" as="geometry" />
        </mxCell>
        <mxCell id="PkAfYLx5WFREf2XD6PGY-5" value="COURSES LIST" style="rounded=0;whiteSpace=wrap;html=1;" vertex="1" parent="1">
          <mxGeometry x="300" y="855" width="120" height="60" as="geometry" />
        </mxCell>
        <mxCell id="PkAfYLx5WFREf2XD6PGY-15" style="edgeStyle=orthogonalEdgeStyle;rounded=0;orthogonalLoop=1;jettySize=auto;html=1;exitX=0.5;exitY=0;exitDx=0;exitDy=0;fillColor=#b1ddf0;strokeColor=#10739e;" edge="1" parent="1" source="PkAfYLx5WFREf2XD6PGY-12" target="PkAfYLx5WFREf2XD6PGY-14">
          <mxGeometry relative="1" as="geometry" />
        </mxCell>
        <mxCell id="PkAfYLx5WFREf2XD6PGY-27" style="edgeStyle=orthogonalEdgeStyle;rounded=0;orthogonalLoop=1;jettySize=auto;html=1;exitX=0.5;exitY=1;exitDx=0;exitDy=0;entryX=0.5;entryY=0;entryDx=0;entryDy=0;" edge="1" parent="1" source="PkAfYLx5WFREf2XD6PGY-12" target="PkAfYLx5WFREf2XD6PGY-24">
          <mxGeometry relative="1" as="geometry" />
        </mxCell>
        <mxCell id="PkAfYLx5WFREf2XD6PGY-12" value="BUY / SEND REQUEST TO JOIN" style="rounded=0;whiteSpace=wrap;html=1;" vertex="1" parent="1">
          <mxGeometry x="440" y="855" width="120" height="60" as="geometry" />
        </mxCell>
        <mxCell id="PkAfYLx5WFREf2XD6PGY-18" style="edgeStyle=orthogonalEdgeStyle;rounded=0;orthogonalLoop=1;jettySize=auto;html=1;exitX=0.9;exitY=0.5;exitDx=0;exitDy=0;exitPerimeter=0;entryX=0;entryY=0.5;entryDx=0;entryDy=0;fillColor=#b1ddf0;strokeColor=#10739e;" edge="1" parent="1" source="PkAfYLx5WFREf2XD6PGY-14" target="PkAfYLx5WFREf2XD6PGY-17">
          <mxGeometry relative="1" as="geometry" />
        </mxCell>
        <mxCell id="PkAfYLx5WFREf2XD6PGY-45" style="edgeStyle=orthogonalEdgeStyle;rounded=0;orthogonalLoop=1;jettySize=auto;html=1;exitX=0.9;exitY=0.5;exitDx=0;exitDy=0;exitPerimeter=0;entryX=0.5;entryY=1;entryDx=0;entryDy=0;fillColor=#fad9d5;strokeColor=#ae4132;" edge="1" parent="1" source="PkAfYLx5WFREf2XD6PGY-14" target="PkAfYLx5WFREf2XD6PGY-43">
          <mxGeometry relative="1" as="geometry">
            <Array as="points">
              <mxPoint x="550" y="765" />
              <mxPoint x="550" y="670" />
              <mxPoint x="520" y="670" />
            </Array>
          </mxGeometry>
        </mxCell>
        <mxCell id="PkAfYLx5WFREf2XD6PGY-14" value="teacher&lt;div&gt;&lt;span style=&quot;background-color: transparent;&quot;&gt;admin&lt;/span&gt;&lt;/div&gt;" style="shape=actor;whiteSpace=wrap;html=1;fontSize=12;verticalAlign=bottom;align=center;labelPosition=center;verticalLabelPosition=top;fontColor=light-dark(#000000,#B266FF);" vertex="1" parent="1">
          <mxGeometry x="480" y="740" width="40" height="50" as="geometry" />
        </mxCell>
        <mxCell id="PkAfYLx5WFREf2XD6PGY-23" style="edgeStyle=orthogonalEdgeStyle;rounded=0;orthogonalLoop=1;jettySize=auto;html=1;exitX=0.5;exitY=1;exitDx=0;exitDy=0;" edge="1" parent="1" source="PkAfYLx5WFREf2XD6PGY-17" target="PkAfYLx5WFREf2XD6PGY-19">
          <mxGeometry relative="1" as="geometry" />
        </mxCell>
        <mxCell id="PkAfYLx5WFREf2XD6PGY-30" style="edgeStyle=orthogonalEdgeStyle;rounded=0;orthogonalLoop=1;jettySize=auto;html=1;exitX=1;exitY=0.5;exitDx=0;exitDy=0;entryX=0.5;entryY=0;entryDx=0;entryDy=0;" edge="1" parent="1" source="PkAfYLx5WFREf2XD6PGY-17" target="PkAfYLx5WFREf2XD6PGY-24">
          <mxGeometry relative="1" as="geometry">
            <Array as="points">
              <mxPoint x="740" y="765" />
              <mxPoint x="740" y="1020" />
              <mxPoint x="400" y="1020" />
            </Array>
          </mxGeometry>
        </mxCell>
        <mxCell id="PkAfYLx5WFREf2XD6PGY-17" value="ADD TO GROUP" style="rounded=0;whiteSpace=wrap;html=1;" vertex="1" parent="1">
          <mxGeometry x="600" y="735" width="120" height="60" as="geometry" />
        </mxCell>
        <mxCell id="PkAfYLx5WFREf2XD6PGY-19" value="CLASS (GROUP)" style="swimlane;fontStyle=0;childLayout=stackLayout;horizontal=1;startSize=30;horizontalStack=0;resizeParent=1;resizeParentMax=0;resizeLast=0;collapsible=1;marginBottom=0;whiteSpace=wrap;html=1;" vertex="1" parent="1">
          <mxGeometry x="590" y="810" width="140" height="120" as="geometry" />
        </mxCell>
        <mxCell id="PkAfYLx5WFREf2XD6PGY-20" value="&lt;font style=&quot;color: light-dark(rgb(0, 0, 0), rgb(178, 102, 255));&quot;&gt;teacher&lt;/font&gt;" style="text;strokeColor=none;fillColor=none;align=left;verticalAlign=middle;spacingLeft=4;spacingRight=4;overflow=hidden;points=[[0,0.5],[1,0.5]];portConstraint=eastwest;rotatable=0;whiteSpace=wrap;html=1;" vertex="1" parent="PkAfYLx5WFREf2XD6PGY-19">
          <mxGeometry y="30" width="140" height="30" as="geometry" />
        </mxCell>
        <mxCell id="PkAfYLx5WFREf2XD6PGY-21" value="..." style="text;strokeColor=none;fillColor=none;align=left;verticalAlign=middle;spacingLeft=4;spacingRight=4;overflow=hidden;points=[[0,0.5],[1,0.5]];portConstraint=eastwest;rotatable=0;whiteSpace=wrap;html=1;" vertex="1" parent="PkAfYLx5WFREf2XD6PGY-19">
          <mxGeometry y="60" width="140" height="30" as="geometry" />
        </mxCell>
        <mxCell id="PkAfYLx5WFREf2XD6PGY-22" value="&lt;font style=&quot;color: light-dark(rgb(0, 0, 0), rgb(51, 255, 51));&quot;&gt;user&lt;/font&gt;" style="text;strokeColor=none;fillColor=none;align=left;verticalAlign=middle;spacingLeft=4;spacingRight=4;overflow=hidden;points=[[0,0.5],[1,0.5]];portConstraint=eastwest;rotatable=0;whiteSpace=wrap;html=1;" vertex="1" parent="PkAfYLx5WFREf2XD6PGY-19">
          <mxGeometry y="90" width="140" height="30" as="geometry" />
        </mxCell>
        <mxCell id="PkAfYLx5WFREf2XD6PGY-24" value="SESSIONS / DATA" style="rounded=0;whiteSpace=wrap;html=1;" vertex="1" parent="1">
          <mxGeometry x="340" y="1090" width="120" height="60" as="geometry" />
        </mxCell>
        <mxCell id="PkAfYLx5WFREf2XD6PGY-25" style="edgeStyle=orthogonalEdgeStyle;rounded=0;orthogonalLoop=1;jettySize=auto;html=1;exitX=1;exitY=0.5;exitDx=0;exitDy=0;entryX=0;entryY=0.5;entryDx=0;entryDy=0;entryPerimeter=0;" edge="1" parent="1" source="PkAfYLx5WFREf2XD6PGY-24" target="PkAfYLx5WFREf2XD6PGY-1">
          <mxGeometry relative="1" as="geometry" />
        </mxCell>
        <mxCell id="PkAfYLx5WFREf2XD6PGY-38" style="edgeStyle=orthogonalEdgeStyle;rounded=0;orthogonalLoop=1;jettySize=auto;html=1;exitX=0.5;exitY=0;exitDx=0;exitDy=0;entryX=0.5;entryY=1;entryDx=0;entryDy=0;" edge="1" parent="1" source="PkAfYLx5WFREf2XD6PGY-31" target="PkAfYLx5WFREf2XD6PGY-35">
          <mxGeometry relative="1" as="geometry" />
        </mxCell>
        <mxCell id="PkAfYLx5WFREf2XD6PGY-31" value="MODULES" style="rounded=0;whiteSpace=wrap;html=1;" vertex="1" parent="1">
          <mxGeometry x="100" y="760" width="120" height="60" as="geometry" />
        </mxCell>
        <mxCell id="PkAfYLx5WFREf2XD6PGY-39" style="edgeStyle=orthogonalEdgeStyle;rounded=0;orthogonalLoop=1;jettySize=auto;html=1;exitX=0;exitY=0.5;exitDx=0;exitDy=0;entryX=1;entryY=0.5;entryDx=0;entryDy=0;" edge="1" parent="1" source="PkAfYLx5WFREf2XD6PGY-32" target="PkAfYLx5WFREf2XD6PGY-31">
          <mxGeometry relative="1" as="geometry" />
        </mxCell>
        <mxCell id="PkAfYLx5WFREf2XD6PGY-32" value="COURSE" style="rounded=0;whiteSpace=wrap;html=1;" vertex="1" parent="1">
          <mxGeometry x="240" y="760" width="120" height="60" as="geometry" />
        </mxCell>
        <mxCell id="PkAfYLx5WFREf2XD6PGY-40" style="edgeStyle=orthogonalEdgeStyle;rounded=0;orthogonalLoop=1;jettySize=auto;html=1;exitX=1;exitY=0.5;exitDx=0;exitDy=0;entryX=0;entryY=0.5;entryDx=0;entryDy=0;" edge="1" parent="1" source="PkAfYLx5WFREf2XD6PGY-35" target="PkAfYLx5WFREf2XD6PGY-36">
          <mxGeometry relative="1" as="geometry" />
        </mxCell>
        <mxCell id="PkAfYLx5WFREf2XD6PGY-35" value="LESSONS" style="rounded=0;whiteSpace=wrap;html=1;" vertex="1" parent="1">
          <mxGeometry x="100" y="670" width="120" height="60" as="geometry" />
        </mxCell>
        <mxCell id="PkAfYLx5WFREf2XD6PGY-42" style="edgeStyle=orthogonalEdgeStyle;rounded=0;orthogonalLoop=1;jettySize=auto;html=1;exitX=0.5;exitY=0;exitDx=0;exitDy=0;entryX=0.5;entryY=1;entryDx=0;entryDy=0;" edge="1" parent="1" source="PkAfYLx5WFREf2XD6PGY-36" target="PkAfYLx5WFREf2XD6PGY-41">
          <mxGeometry relative="1" as="geometry" />
        </mxCell>
        <mxCell id="PkAfYLx5WFREf2XD6PGY-47" style="edgeStyle=orthogonalEdgeStyle;rounded=0;orthogonalLoop=1;jettySize=auto;html=1;exitX=0.5;exitY=0;exitDx=0;exitDy=0;entryX=0.5;entryY=1;entryDx=0;entryDy=0;" edge="1" parent="1" source="PkAfYLx5WFREf2XD6PGY-36" target="PkAfYLx5WFREf2XD6PGY-46">
          <mxGeometry relative="1" as="geometry" />
        </mxCell>
        <mxCell id="PkAfYLx5WFREf2XD6PGY-36" value="TASKS" style="rounded=0;whiteSpace=wrap;html=1;" vertex="1" parent="1">
          <mxGeometry x="240" y="670" width="120" height="60" as="geometry" />
        </mxCell>
        <mxCell id="PkAfYLx5WFREf2XD6PGY-44" style="edgeStyle=orthogonalEdgeStyle;rounded=0;orthogonalLoop=1;jettySize=auto;html=1;exitX=1;exitY=0.5;exitDx=0;exitDy=0;entryX=0;entryY=0.75;entryDx=0;entryDy=0;fontColor=light-dark(#000000,#FF6464);fillColor=#fad9d5;strokeColor=#ae4132;" edge="1" parent="1" source="PkAfYLx5WFREf2XD6PGY-41" target="PkAfYLx5WFREf2XD6PGY-14">
          <mxGeometry relative="1" as="geometry" />
        </mxCell>
        <mxCell id="PkAfYLx5WFREf2XD6PGY-41" value="SEND HOMEWORK" style="rounded=0;whiteSpace=wrap;html=1;" vertex="1" parent="1">
          <mxGeometry x="300" y="510" width="120" height="60" as="geometry" />
        </mxCell>
        <mxCell id="PkAfYLx5WFREf2XD6PGY-43" value="ADD GRADE" style="rounded=0;whiteSpace=wrap;html=1;" vertex="1" parent="1">
          <mxGeometry x="460" y="580" width="120" height="60" as="geometry" />
        </mxCell>
        <mxCell id="PkAfYLx5WFREf2XD6PGY-48" style="edgeStyle=orthogonalEdgeStyle;rounded=0;orthogonalLoop=1;jettySize=auto;html=1;exitX=0.5;exitY=0;exitDx=0;exitDy=0;entryX=0;entryY=0.75;entryDx=0;entryDy=0;fillColor=#ffcd28;gradientColor=#ffa500;strokeColor=#d79b00;" edge="1" parent="1" source="PkAfYLx5WFREf2XD6PGY-46" target="PkAfYLx5WFREf2XD6PGY-14">
          <mxGeometry relative="1" as="geometry">
            <Array as="points">
              <mxPoint x="220" y="490" />
              <mxPoint x="430" y="490" />
              <mxPoint x="430" y="778" />
            </Array>
          </mxGeometry>
        </mxCell>
        <mxCell id="PkAfYLx5WFREf2XD6PGY-46" value="CHAT" style="rounded=0;whiteSpace=wrap;html=1;" vertex="1" parent="1">
          <mxGeometry x="160" y="510" width="120" height="60" as="geometry" />
        </mxCell>
      </root>
    </mxGraphModel>
  </diagram>
</mxfile>
